<mxfile host="app.diagrams.net" agent="Mozilla/5.0 (Windows NT 10.0; Win64; x64) AppleWebKit/537.36 (KHTML, like Gecko) Chrome/131.0.0.0 Safari/537.36" version="26.0.5">
  <diagram name="Trang-1" id="AQtZrioAzVxxRLMKWOvk">
    <mxGraphModel dx="1050" dy="557" grid="1" gridSize="10" guides="1" tooltips="1" connect="1" arrows="1" fold="1" page="1" pageScale="1" pageWidth="827" pageHeight="1169" math="0" shadow="0">
      <root>
        <mxCell id="0" />
        <mxCell id="1" parent="0" />
        <mxCell id="Ql2tc8wTdR94Kx9v6BuY-1" value="" style="swimlane;startSize=0;" parent="1" vertex="1">
          <mxGeometry x="204" y="200" width="420" height="400" as="geometry" />
        </mxCell>
        <mxCell id="Ql2tc8wTdR94Kx9v6BuY-3" value="&lt;font style=&quot;font-size: 20px;&quot;&gt;&lt;b style=&quot;&quot;&gt;Header&lt;/b&gt;&lt;/font&gt;" style="rounded=1;whiteSpace=wrap;html=1;" parent="Ql2tc8wTdR94Kx9v6BuY-1" vertex="1">
          <mxGeometry x="100" y="10" width="306" height="50" as="geometry" />
        </mxCell>
        <mxCell id="Ql2tc8wTdR94Kx9v6BuY-4" value="&lt;b&gt;&lt;font style=&quot;font-size: 20px;&quot;&gt;Left&lt;/font&gt;&lt;/b&gt;" style="rounded=1;whiteSpace=wrap;html=1;rotation=90;horizontal=0;" parent="Ql2tc8wTdR94Kx9v6BuY-1" vertex="1">
          <mxGeometry x="-76.25" y="162.25" width="244.5" height="60" as="geometry" />
        </mxCell>
        <mxCell id="Ql2tc8wTdR94Kx9v6BuY-5" value="&lt;b&gt;&lt;font style=&quot;font-size: 21px;&quot;&gt;Footer&lt;/font&gt;&lt;/b&gt;" style="rounded=1;whiteSpace=wrap;html=1;rotation=0;" parent="Ql2tc8wTdR94Kx9v6BuY-1" vertex="1">
          <mxGeometry x="16" y="330" width="394" height="60" as="geometry" />
        </mxCell>
        <mxCell id="Ql2tc8wTdR94Kx9v6BuY-8" value="&lt;b&gt;&lt;font style=&quot;font-size: 19px;&quot;&gt;Logo&lt;/font&gt;&lt;/b&gt;" style="ellipse;whiteSpace=wrap;html=1;strokeWidth=2;fillWeight=2;hachureGap=8;fillColor=#990000;fillStyle=dots;sketch=1;" parent="Ql2tc8wTdR94Kx9v6BuY-1" vertex="1">
          <mxGeometry x="6.5" y="10" width="79" height="50" as="geometry" />
        </mxCell>
        <mxCell id="Ql2tc8wTdR94Kx9v6BuY-9" value="&lt;font style=&quot;font-size: 21px;&quot;&gt;&lt;b style=&quot;&quot;&gt;Main&lt;/b&gt;&lt;/font&gt;" style="rounded=1;whiteSpace=wrap;html=1;strokeWidth=2;fillWeight=4;hachureGap=8;hachureAngle=45;fillColor=#1ba1e2;sketch=1;" parent="Ql2tc8wTdR94Kx9v6BuY-1" vertex="1">
          <mxGeometry x="85.5" y="70" width="324.5" height="250" as="geometry" />
        </mxCell>
        <mxCell id="n5DJ3y9lHMWtWvBQpTXL-1" value="&lt;b&gt;&lt;font style=&quot;font-size: 15px;&quot;&gt;Master template&lt;/font&gt;&lt;/b&gt;" style="text;html=1;align=center;verticalAlign=middle;resizable=0;points=[];autosize=1;strokeColor=none;fillColor=none;" vertex="1" parent="1">
          <mxGeometry x="630" y="380" width="140" height="30" as="geometry" />
        </mxCell>
      </root>
    </mxGraphModel>
  </diagram>
</mxfile>
